<svg width="159" height="34" viewBox="0 0 159 34" fill="none" xmlns="http://www.w3.org/2000/svg">
<path d="M9.11719 2.07031C9.35156 2.07031 9.57292 2.09635 9.78125 2.14844C9.96354 1.96615 10.276 1.875 10.7188 1.875C11.3438 1.875 11.8125 2.1224 12.125 2.61719L12.9453 3.98438C13.5964 4.63542 14.1302 5.39062 14.5469 6.25C14.9896 7.08333 15.3411 7.95573 15.6016 8.86719C15.862 9.77865 16.0443 10.6901 16.1484 11.6016C16.2526 12.513 16.3047 13.3594 16.3047 14.1406C16.3047 15.4688 16.1094 16.849 15.7188 18.2812C15.3281 19.7135 14.625 21.0156 13.6094 22.1875C12.6719 23.3854 11.8255 24.2578 11.0703 24.8047C10.3151 25.3255 9.40365 25.5859 8.33594 25.5859C7.89323 25.5859 7.32031 25.5339 6.61719 25.4297C5.9401 25.3255 5.23698 25.1042 4.50781 24.7656C3.80469 24.4271 3.14062 23.9323 2.51562 23.2812C1.89062 22.6302 1.4349 21.7578 1.14844 20.6641C0.888021 19.7526 0.692708 18.9583 0.5625 18.2812C0.458333 17.5781 0.40625 16.875 0.40625 16.1719C0.40625 14.9219 0.510417 13.6979 0.71875 12.5C0.953125 11.276 1.26562 10.1432 1.65625 9.10156C2.04688 8.03385 2.51562 7.08333 3.0625 6.25C3.63542 5.41667 4.26042 4.7526 4.9375 4.25781C6.03125 3.47656 7.42448 2.7474 9.11719 2.07031ZM9.97656 5.15625L8.88281 5.50781C8.15365 5.74219 7.51562 6.13281 6.96875 6.67969C6.42188 7.20052 5.95312 7.79948 5.5625 8.47656C5.17188 9.15365 4.84635 9.86979 4.58594 10.625C4.32552 11.3542 4.11719 12.0573 3.96094 12.7344C3.80469 13.4115 3.6875 14.0104 3.60938 14.5312C3.55729 15.0521 3.53125 15.4167 3.53125 15.625C3.53125 17.4479 4.03906 19.3359 5.05469 21.2891C5.54948 21.7057 6.04427 22.0182 6.53906 22.2266C7.0599 22.4349 7.72396 22.5391 8.53125 22.5391C8.58333 22.5391 8.66146 22.513 8.76562 22.4609L9 22.3828C9.05208 22.3568 9.10417 22.3307 9.15625 22.3047C9.20833 22.2786 9.26042 22.2396 9.3125 22.1875L9.82031 21.7578C9.92448 21.7318 10.0026 21.6536 10.0547 21.5234C10.5234 21.0026 10.9401 20.4818 11.3047 19.9609C11.6953 19.4401 12.0208 18.8802 12.2812 18.2812C12.5677 17.6562 12.776 16.9922 12.9062 16.2891C13.0625 15.5599 13.1406 14.7396 13.1406 13.8281C13.1406 12.6302 12.9714 11.4453 12.6328 10.2734C12.3203 9.07552 11.8646 7.96875 11.2656 6.95312C10.8229 6.38021 10.5234 6.01562 10.3672 5.85938C10.237 5.67708 10.1328 5.48177 10.0547 5.27344L9.97656 5.15625ZM20.6797 14.2578C20.1068 14.2057 19.7031 14.0234 19.4688 13.7109C19.2344 13.3724 19.1172 13.0078 19.1172 12.6172C19.1172 12.2526 19.2474 11.901 19.5078 11.5625C19.7943 11.224 20.1589 11.0547 20.6016 11.0547C21.4609 11.0547 22.3594 11.0807 23.2969 11.1328C24.2344 11.1589 25.1719 11.1979 26.1094 11.25C27.0469 11.276 27.9714 11.3021 28.8828 11.3281C29.7943 11.3542 30.6536 11.3672 31.4609 11.3672C31.9297 11.5234 32.2682 11.7578 32.4766 12.0703C32.7109 12.3568 32.8281 12.6693 32.8281 13.0078C32.8281 13.3724 32.6979 13.6979 32.4375 13.9844C32.1771 14.2708 31.8255 14.4661 31.3828 14.5703H31.1484C30.5495 14.5182 30.1328 14.3359 29.8984 14.0234C29.6641 13.6849 29.5469 13.3203 29.5469 12.9297C29.5469 12.5651 29.6771 12.2135 29.9375 11.875C30.224 11.5365 30.6536 11.3672 31.2266 11.3672H31.4609C31.9297 11.5234 32.2682 11.7578 32.4766 12.0703C32.7109 12.3568 32.8281 12.6693 32.8281 13.0078C32.8281 13.3724 32.6979 13.6979 32.4375 13.9844C32.1771 14.2708 31.8255 14.4661 31.3828 14.5703C30.6016 14.5703 29.7422 14.5573 28.8047 14.5312C27.8932 14.5052 26.9557 14.4792 25.9922 14.4531C25.0547 14.401 24.1302 14.362 23.2188 14.3359C22.3073 14.2839 21.4609 14.2578 20.6797 14.2578ZM27.7109 4.41406C27.4766 4.6224 27.2552 4.83073 27.0469 5.03906C26.8646 5.22135 26.7214 5.57292 26.6172 6.09375C26.513 6.69271 26.4349 7.26562 26.3828 7.8125C26.3307 8.35938 26.3047 8.91927 26.3047 9.49219C26.3047 10.6641 26.3828 11.8359 26.5391 13.0078C26.6953 14.1536 26.8646 15.3125 27.0469 16.4844C27.2552 17.6302 27.4375 18.8021 27.5938 20C27.75 21.1719 27.8281 22.3568 27.8281 23.5547C27.8281 23.9974 27.8151 24.4401 27.7891 24.8828C27.763 25.2995 27.6849 25.6641 27.5547 25.9766C27.4245 26.3151 27.2292 26.5885 26.9688 26.7969C26.7083 27.0052 26.3568 27.1094 25.9141 27.1094C25.5234 27.0573 25.1979 26.901 24.9375 26.6406C24.6771 26.3802 24.5339 26.0156 24.5078 25.5469V25.3906C24.5859 24.9219 24.7682 24.5573 25.0547 24.2969C25.3672 24.0104 25.7057 23.8672 26.0703 23.8672C26.3828 23.8672 26.6823 23.9844 26.9688 24.2188C27.2552 24.4271 27.4896 24.7917 27.6719 25.3125V25.7422C27.3073 25.7943 26.9948 25.8203 26.7344 25.8203C26.5 25.8464 26.2656 25.8594 26.0312 25.8594C25.8229 25.8594 25.5885 25.8594 25.3281 25.8594C25.0938 25.8594 24.8073 25.8724 24.4688 25.8984C24.5469 25.1693 24.5859 24.4401 24.5859 23.7109C24.5859 22.3828 24.4818 21.1068 24.2734 19.8828C24.0651 18.6589 23.8698 17.4349 23.6875 16.2109C23.5312 15.1172 23.401 14.0495 23.2969 13.0078C23.1927 11.9401 23.1406 10.8594 23.1406 9.76562C23.1406 9.11458 23.1667 8.29427 23.2188 7.30469C23.2708 6.28906 23.4531 5.3125 23.7656 4.375C24.1042 3.4375 24.638 2.64323 25.3672 1.99219C26.0964 1.3151 27.125 0.976562 28.4531 0.976562C29.0521 0.976562 29.5208 1.11979 29.8594 1.40625C30.1979 1.69271 30.3672 2.01823 30.3672 2.38281C30.3672 3.00781 30.0417 3.56771 29.3906 4.0625C29.0781 4.16667 28.7786 4.24479 28.4922 4.29688C28.2318 4.32292 27.9714 4.36198 27.7109 4.41406ZM37.3984 14.2578C36.8255 14.2057 36.4219 14.0234 36.1875 13.7109C35.9531 13.3724 35.8359 13.0078 35.8359 12.6172C35.8359 12.2526 35.9661 11.901 36.2266 11.5625C36.513 11.224 36.8776 11.0547 37.3203 11.0547C38.1797 11.0547 39.0781 11.0807 40.0156 11.1328C40.9531 11.1589 41.8906 11.1979 42.8281 11.25C43.7656 11.276 44.6901 11.3021 45.6016 11.3281C46.513 11.3542 47.3724 11.3672 48.1797 11.3672C48.6484 11.5234 48.987 11.7578 49.1953 12.0703C49.4297 12.3568 49.5469 12.6693 49.5469 13.0078C49.5469 13.3724 49.4167 13.6979 49.1562 13.9844C48.8958 14.2708 48.5443 14.4661 48.1016 14.5703H47.8672C47.2682 14.5182 46.8516 14.3359 46.6172 14.0234C46.3828 13.6849 46.2656 13.3203 46.2656 12.9297C46.2656 12.5651 46.3958 12.2135 46.6562 11.875C46.9427 11.5365 47.3724 11.3672 47.9453 11.3672H48.1797C48.6484 11.5234 48.987 11.7578 49.1953 12.0703C49.4297 12.3568 49.5469 12.6693 49.5469 13.0078C49.5469 13.3724 49.4167 13.6979 49.1562 13.9844C48.8958 14.2708 48.5443 14.4661 48.1016 14.5703C47.3203 14.5703 46.4609 14.5573 45.5234 14.5312C44.612 14.5052 43.6745 14.4792 42.7109 14.4531C41.7734 14.401 40.849 14.362 39.9375 14.3359C39.026 14.2839 38.1797 14.2578 37.3984 14.2578ZM44.4297 4.41406C44.1953 4.6224 43.974 4.83073 43.7656 5.03906C43.5833 5.22135 43.4401 5.57292 43.3359 6.09375C43.2318 6.69271 43.1536 7.26562 43.1016 7.8125C43.0495 8.35938 43.0234 8.91927 43.0234 9.49219C43.0234 10.6641 43.1016 11.8359 43.2578 13.0078C43.4141 14.1536 43.5833 15.3125 43.7656 16.4844C43.974 17.6302 44.1562 18.8021 44.3125 20C44.4688 21.1719 44.5469 22.3568 44.5469 23.5547C44.5469 23.9974 44.5339 24.4401 44.5078 24.8828C44.4818 25.2995 44.4036 25.6641 44.2734 25.9766C44.1432 26.3151 43.9479 26.5885 43.6875 26.7969C43.4271 27.0052 43.0755 27.1094 42.6328 27.1094C42.2422 27.0573 41.9167 26.901 41.6562 26.6406C41.3958 26.3802 41.2526 26.0156 41.2266 25.5469V25.3906C41.3047 24.9219 41.487 24.5573 41.7734 24.2969C42.0859 24.0104 42.4245 23.8672 42.7891 23.8672C43.1016 23.8672 43.401 23.9844 43.6875 24.2188C43.974 24.4271 44.2083 24.7917 44.3906 25.3125V25.7422C44.026 25.7943 43.7135 25.8203 43.4531 25.8203C43.2188 25.8464 42.9844 25.8594 42.75 25.8594C42.5417 25.8594 42.3073 25.8594 42.0469 25.8594C41.8125 25.8594 41.526 25.8724 41.1875 25.8984C41.2656 25.1693 41.3047 24.4401 41.3047 23.7109C41.3047 22.3828 41.2005 21.1068 40.9922 19.8828C40.7839 18.6589 40.5885 17.4349 40.4062 16.2109C40.25 15.1172 40.1198 14.0495 40.0156 13.0078C39.9115 11.9401 39.8594 10.8594 39.8594 9.76562C39.8594 9.11458 39.8854 8.29427 39.9375 7.30469C39.9896 6.28906 40.1719 5.3125 40.4844 4.375C40.8229 3.4375 41.3568 2.64323 42.0859 1.99219C42.8151 1.3151 43.8438 0.976562 45.1719 0.976562C45.7708 0.976562 46.2396 1.11979 46.5781 1.40625C46.9167 1.69271 47.0859 2.01823 47.0859 2.38281C47.0859 3.00781 46.7604 3.56771 46.1094 4.0625C45.7969 4.16667 45.4974 4.24479 45.2109 4.29688C44.9505 4.32292 44.6901 4.36198 44.4297 4.41406ZM55.1719 3.24219C55.3021 2.79948 55.4974 2.44792 55.7578 2.1875C56.0443 1.92708 56.3698 1.79688 56.7344 1.79688C57.5156 1.79688 58.0625 2.26562 58.375 3.20312C58.375 5.15625 58.362 7.00521 58.3359 8.75C58.3099 10.4688 58.2969 12.0964 58.2969 13.6328C58.2969 16.237 58.4531 19.0625 58.7656 22.1094C59 22.1875 59.2865 22.2786 59.625 22.3828C59.9896 22.4609 60.3281 22.5911 60.6406 22.7734C60.9792 22.9297 61.2526 23.138 61.4609 23.3984C61.6953 23.6589 61.8125 23.9844 61.8125 24.375C61.8125 24.7656 61.6562 25.1042 61.3438 25.3906C61.0573 25.7031 60.7057 25.8594 60.2891 25.8594C60.0026 25.8594 59.6901 25.7812 59.3516 25.625C58.4401 25.1823 57.737 24.8828 57.2422 24.7266C56.7734 24.5443 56.4089 24.349 56.1484 24.1406C55.9141 23.9062 55.7578 23.5547 55.6797 23.0859C55.6016 22.5911 55.5234 21.8099 55.4453 20.7422C55.263 19.7786 55.1719 18.724 55.1719 17.5781C55.1719 16.4323 55.1719 15.3255 55.1719 14.2578V3.24219ZM69.5469 14.4141C69.6771 13.8151 69.9115 13.4245 70.25 13.2422C70.5885 13.0339 70.9792 12.9297 71.4219 12.9297C71.7865 12.9818 72.099 13.1771 72.3594 13.5156C72.6198 13.8542 72.75 14.2708 72.75 14.7656C72.6979 15.7812 72.6458 16.6927 72.5938 17.5C72.5417 18.2812 72.5026 19.0495 72.4766 19.8047C72.4505 20.5599 72.4245 21.3542 72.3984 22.1875C72.3984 22.9948 72.3984 23.9323 72.3984 25C72.3984 25.4427 72.2292 25.8073 71.8906 26.0938C71.5521 26.4062 71.2005 26.5625 70.8359 26.5625C70.4714 26.5625 70.1198 26.4323 69.7812 26.1719C69.4427 25.9115 69.2474 25.5078 69.1953 24.9609C69.1953 22.9036 69.2344 21.1458 69.3125 19.6875L69.5469 14.4141ZM67.8672 8.71094C67.5547 8.58073 67.2943 8.38542 67.0859 8.125C66.9036 7.83854 66.8125 7.55208 66.8125 7.26562C66.8125 6.875 66.9427 6.4974 67.2031 6.13281C67.4896 5.76823 67.9323 5.58594 68.5312 5.58594C69.2865 5.71615 69.9505 5.9375 70.5234 6.25C71.0964 6.5625 71.6823 6.75781 72.2812 6.83594C72.75 6.96615 73.0885 7.20052 73.2969 7.53906C73.5052 7.85156 73.6094 8.16406 73.6094 8.47656C73.6094 8.84115 73.4661 9.19271 73.1797 9.53125C72.9193 9.86979 72.5677 10.0391 72.125 10.0391C71.7344 10.0391 71.3568 9.98698 70.9922 9.88281C70.6536 9.77865 70.3151 9.64844 69.9766 9.49219C69.638 9.33594 69.2995 9.19271 68.9609 9.0625C68.6224 8.90625 68.2578 8.78906 67.8672 8.71094ZM79.1562 9.80469C79.2604 9.77865 79.3776 9.76562 79.5078 9.76562C79.638 9.76562 79.7943 9.7526 79.9766 9.72656H80.0156C80.9531 9.72656 81.6693 9.88281 82.1641 10.1953C82.6849 10.4818 83.1276 10.9766 83.4922 11.6797C84.013 11.1589 84.5469 10.7943 85.0938 10.5859C85.6406 10.3516 86.2135 10.2344 86.8125 10.2344C87.8281 10.2344 88.7396 10.4948 89.5469 11.0156C90.3542 11.5104 91.0312 12.1745 91.5781 13.0078C92.151 13.8411 92.5807 14.8177 92.8672 15.9375C93.1797 17.0312 93.3359 18.1641 93.3359 19.3359C93.3359 20.4297 93.2448 21.4974 93.0625 22.5391C92.9062 23.5807 92.7891 24.5703 92.7109 25.5078C92.4245 26.1849 91.9297 26.6016 91.2266 26.7578H91.0703C90.7057 26.7057 90.3411 26.5625 89.9766 26.3281C89.638 26.0938 89.4688 25.6771 89.4688 25.0781L89.5078 24.6875C89.5339 24.5573 89.5599 24.4531 89.5859 24.375C89.612 24.2708 89.638 24.1797 89.6641 24.1016L89.8984 22.3828C89.9505 21.9141 89.9896 21.4453 90.0156 20.9766C90.0677 20.5078 90.0938 20.026 90.0938 19.5312C90.0938 19.0104 90.0417 18.3984 89.9375 17.6953C89.8594 16.9922 89.6901 16.3281 89.4297 15.7031C89.1693 15.0521 88.8047 14.5052 88.3359 14.0625C87.8672 13.6198 87.2552 13.3984 86.5 13.3984C86.2135 13.5547 85.888 13.737 85.5234 13.9453C85.1589 14.1536 84.8203 14.2578 84.5078 14.2578H84.3516C84.2734 14.2578 84.2344 14.2839 84.2344 14.3359C84.2344 14.362 84.2344 14.375 84.2344 14.375C84.2604 14.375 84.2734 14.388 84.2734 14.4141C84.4036 15.1693 84.4948 15.9505 84.5469 16.7578C84.625 17.5651 84.6641 18.3854 84.6641 19.2188C84.6641 19.8698 84.638 20.625 84.5859 21.4844C84.5599 22.3177 84.4688 23.125 84.3125 23.9062C84.1562 24.6615 83.9219 25.2995 83.6094 25.8203C83.3229 26.3672 82.9062 26.6406 82.3594 26.6406C81.9688 26.6406 81.5911 26.5104 81.2266 26.25C80.888 25.9896 80.7188 25.5599 80.7188 24.9609C80.7188 24.8047 80.7318 24.6875 80.7578 24.6094C81.2526 22.8906 81.5 20.9766 81.5 18.8672C81.5 16.6536 81.2917 14.7917 80.875 13.2812L80.7578 13.125C80.4974 13.099 80.2109 13.0469 79.8984 12.9688C79.612 12.8906 79.3385 12.7865 79.0781 12.6562C78.8177 12.5 78.5964 12.3177 78.4141 12.1094C78.2318 11.875 78.1406 11.5885 78.1406 11.25C78.1406 10.599 78.4792 10.1172 79.1562 9.80469ZM99.1953 14.6875C99.1432 14.7135 99.1172 14.7396 99.1172 14.7656H99.1953C99.3776 14.7656 99.5599 14.8177 99.7422 14.9219C99.9245 15 100.081 15.1042 100.211 15.2344C100.341 15.3385 100.445 15.4427 100.523 15.5469C100.628 15.625 100.693 15.6641 100.719 15.6641C101.109 15.8464 101.539 15.9375 102.008 15.9375C102.763 15.9375 103.401 15.8333 103.922 15.625C104.443 15.3906 104.703 14.8438 104.703 13.9844C104.547 13.4635 104.365 13.0339 104.156 12.6953C103.974 12.3568 103.661 12.0312 103.219 11.7188L102.398 11.3672H101.852C101.643 11.3672 101.37 11.4193 101.031 11.5234C100.693 11.6276 100.354 11.7708 100.016 11.9531C99.9115 12.1094 99.8073 12.3438 99.7031 12.6562C99.599 12.9427 99.5078 13.2292 99.4297 13.5156C99.3516 13.8021 99.2865 14.0625 99.2344 14.2969C99.2083 14.5312 99.1953 14.6615 99.1953 14.6875ZM99.5078 18.4766L99.3906 18.0469C99.7031 19.4271 100.458 20.5599 101.656 21.4453C101.917 21.6536 102.242 21.8359 102.633 21.9922C103.049 22.1484 103.453 22.2917 103.844 22.4219C104.26 22.5521 104.625 22.6562 104.938 22.7344C105.25 22.7865 105.445 22.8125 105.523 22.8125C105.784 22.5781 106.109 22.4609 106.5 22.4609C106.969 22.513 107.333 22.7083 107.594 23.0469C107.854 23.3594 107.984 23.6979 107.984 24.0625C107.984 24.6354 107.711 25.0911 107.164 25.4297C106.643 25.7943 106.083 25.9766 105.484 25.9766C104.208 25.9766 102.997 25.7161 101.852 25.1953C100.706 24.7005 99.7031 24.0234 98.8438 23.1641C97.9844 22.3047 97.2812 21.3151 96.7344 20.1953C96.2135 19.0755 95.9271 17.8906 95.875 16.6406C95.875 15.7812 95.9401 14.8568 96.0703 13.8672C96.2005 12.8776 96.474 11.9661 96.8906 11.1328C97.3073 10.2734 97.9062 9.55729 98.6875 8.98438C99.4948 8.41146 100.562 8.125 101.891 8.125C102.724 8.125 103.505 8.30729 104.234 8.67188C104.964 9.01042 105.589 9.47917 106.109 10.0781C106.656 10.6771 107.086 11.3672 107.398 12.1484C107.711 12.9036 107.867 13.6979 107.867 14.5312C107.867 15.2865 107.724 15.9505 107.438 16.5234C107.177 17.0964 106.812 17.5781 106.344 17.9688C105.875 18.3333 105.315 18.6198 104.664 18.8281C104.039 19.0104 103.375 19.1016 102.672 19.1016C102.385 19.1016 102.06 19.0755 101.695 19.0234C101.357 18.9714 101.031 18.9193 100.719 18.8672C100.406 18.7891 100.133 18.724 99.8984 18.6719C99.6901 18.5938 99.5599 18.5286 99.5078 18.4766ZM117.086 25.2344C117.086 25.6771 116.93 26.0417 116.617 26.3281C116.305 26.6146 115.966 26.7578 115.602 26.7578C115.237 26.7578 114.859 26.6406 114.469 26.4062C114.104 26.1719 113.922 25.7682 113.922 25.1953C113.922 24.2057 113.896 23.2422 113.844 22.3047C113.818 21.3411 113.779 20.3776 113.727 19.4141C113.492 19.3099 113.284 19.1016 113.102 18.7891C112.919 18.4766 112.828 18.1771 112.828 17.8906C112.828 17.5 113.049 17.0833 113.492 16.6406C113.284 15.1562 112.997 13.6589 112.633 12.1484C112.294 10.638 112.008 9.1276 111.773 7.61719C111.721 7.35677 111.695 7.10938 111.695 6.875C111.695 6.61458 111.656 6.34115 111.578 6.05469L111.5 5.3125C111.422 4.97396 111.357 4.6224 111.305 4.25781C111.253 3.89323 111.227 3.51562 111.227 3.125C111.227 2.36979 111.5 1.84896 112.047 1.5625C112.594 1.27604 113.258 1.13281 114.039 1.13281C114.794 1.13281 115.615 1.23698 116.5 1.44531C117.385 1.6276 118.245 1.88802 119.078 2.22656C119.911 2.5651 120.693 2.94271 121.422 3.35938C122.151 3.77604 122.737 4.19271 123.18 4.60938C123.805 5.20833 124.247 5.98958 124.508 6.95312C124.794 7.91667 124.938 8.85417 124.938 9.76562C124.938 10.9375 124.716 11.9531 124.273 12.8125C123.831 13.6458 123.245 14.401 122.516 15.0781C121.812 15.7552 120.992 16.3932 120.055 16.9922C119.117 17.5651 118.154 18.1641 117.164 18.7891L116.773 19.0234C116.878 19.987 116.956 20.9896 117.008 22.0312C117.06 23.0469 117.086 24.1146 117.086 25.2344ZM116.383 15.5469L118.18 14.5703C118.648 14.3099 119.091 14.0234 119.508 13.7109C119.924 13.3984 120.302 13.0469 120.641 12.6562C120.979 12.2396 121.24 11.7839 121.422 11.2891C121.63 10.7943 121.734 10.2474 121.734 9.64844C121.734 8.58073 121.461 7.72135 120.914 7.07031C120.393 6.41927 119.755 5.91146 119 5.54688C118.245 5.15625 117.464 4.88281 116.656 4.72656C115.875 4.57031 115.211 4.45312 114.664 4.375C114.794 4.81771 114.859 5.39062 114.859 6.09375C114.859 6.79688 114.938 7.52604 115.094 8.28125C115.328 9.55729 115.549 10.7943 115.758 11.9922C115.992 13.1901 116.201 14.375 116.383 15.5469ZM138.219 19.5312L137.945 19.4922C137.555 19.4141 137.19 19.2839 136.852 19.1016C136.539 18.9193 136.227 18.737 135.914 18.5547C135.602 18.3724 135.302 18.2161 135.016 18.0859C134.729 17.9297 134.443 17.8516 134.156 17.8516C133.245 17.9557 132.451 18.2682 131.773 18.7891C131.122 19.3099 130.797 19.9349 130.797 20.6641C130.797 20.8724 130.849 21.0938 130.953 21.3281C131.057 21.5625 131.227 21.862 131.461 22.2266C132.138 22.6432 132.88 22.8516 133.688 22.8516C134.625 22.8516 135.445 22.7604 136.148 22.5781L136.656 22.0703C136.917 21.7318 137.268 21.5625 137.711 21.5625H137.906C137.932 21.3542 137.958 21.1458 137.984 20.9375C138.01 20.7292 138.049 20.5208 138.102 20.3125L138.219 19.5312ZM138.805 24.2578L137.906 25.1172C137.568 25.4297 137.021 25.651 136.266 25.7812C135.536 25.9375 134.768 26.0156 133.961 26.0156C132.867 26.0156 131.93 25.8984 131.148 25.6641C130.393 25.4297 129.729 24.974 129.156 24.2969C128.219 23.0469 127.75 21.875 127.75 20.7812C127.75 20.0521 127.893 19.3359 128.18 18.6328C128.492 17.9036 128.922 17.2526 129.469 16.6797C130.016 16.1068 130.68 15.638 131.461 15.2734C132.268 14.9089 133.167 14.7266 134.156 14.7266C134.573 14.7786 134.977 14.8698 135.367 15C135.758 15.1302 136.122 15.2734 136.461 15.4297C136.799 15.5859 137.099 15.7422 137.359 15.8984C137.646 16.0286 137.867 16.1328 138.023 16.2109L137.789 15.1562C137.659 14.7396 137.503 14.3359 137.32 13.9453C137.138 13.5286 136.917 13.125 136.656 12.7344L135.875 12.0312C135.667 11.9792 135.471 11.9141 135.289 11.8359C135.107 11.7318 134.872 11.6797 134.586 11.6797C133.831 11.7318 133.089 11.8359 132.359 11.9922C131.63 12.1224 130.901 12.3177 130.172 12.5781C130.094 12.6042 129.977 12.6172 129.82 12.6172C129.273 12.6172 128.844 12.4609 128.531 12.1484C128.245 11.8359 128.102 11.4974 128.102 11.1328C128.102 10.8203 128.18 10.5469 128.336 10.3125C128.492 10.0521 128.792 9.79167 129.234 9.53125C129.911 9.32292 130.654 9.10156 131.461 8.86719C132.294 8.60677 133.128 8.47656 133.961 8.47656C135.393 8.47656 136.578 8.76302 137.516 9.33594C138.479 9.90885 139.234 10.6641 139.781 11.6016C140.354 12.513 140.745 13.5286 140.953 14.6484C141.188 15.7682 141.305 16.875 141.305 17.9688C141.305 18.6198 141.279 19.3229 141.227 20.0781C141.201 20.8073 141.109 21.4974 140.953 22.1484C140.823 22.7734 140.628 23.2943 140.367 23.7109C140.107 24.1276 139.755 24.3359 139.312 24.3359C139.208 24.3359 139.104 24.3359 139 24.3359C138.896 24.3099 138.831 24.2839 138.805 24.2578ZM144.508 11.2109C144.612 10.7422 144.794 10.3906 145.055 10.1562C145.341 9.92188 145.68 9.77865 146.07 9.72656C146.591 9.72656 146.969 9.92188 147.203 10.3125C147.438 10.6771 147.594 11.1328 147.672 11.6797C147.776 12.2266 147.828 12.8125 147.828 13.4375C147.854 14.0625 147.893 14.6224 147.945 15.1172C147.997 15.5859 148.062 16.0677 148.141 16.5625C148.219 17.0312 148.349 17.474 148.531 17.8906C148.74 18.3073 149.013 18.6458 149.352 18.9062C149.716 19.1667 150.211 19.2969 150.836 19.2969C150.992 19.2969 151.135 19.2839 151.266 19.2578C151.396 19.2057 151.526 19.1536 151.656 19.1016L152.633 18.6328C152.789 18.5286 152.984 18.3333 153.219 18.0469C153.453 17.7344 153.674 17.3438 153.883 16.875C154.117 16.4062 154.312 15.8724 154.469 15.2734C154.651 14.6484 154.742 13.9583 154.742 13.2031C154.742 12.9167 154.729 12.6562 154.703 12.4219C154.703 12.1875 154.703 11.9661 154.703 11.7578L155.016 10.9375L155.133 10.7812C155.654 10.4167 156.109 10.2344 156.5 10.2344C156.786 10.2344 157.034 10.3125 157.242 10.4688C157.451 10.599 157.594 10.7422 157.672 10.8984L157.906 11.4062L157.945 11.6406C157.945 12.3177 157.958 12.9948 157.984 13.6719C158.01 14.3229 158.023 15.0391 158.023 15.8203C158.049 16.6016 158.076 17.474 158.102 18.4375C158.128 19.401 158.141 20.5078 158.141 21.7578C158.141 23.2422 158.036 24.5703 157.828 25.7422C157.62 26.9141 157.216 27.9557 156.617 28.8672C156.044 29.7786 155.25 30.5859 154.234 31.2891C153.219 32.0182 151.891 32.6693 150.25 33.2422C149.964 33.3724 149.612 33.4375 149.195 33.4375C148.935 33.4375 148.661 33.3984 148.375 33.3203C148.115 33.2682 147.867 33.1641 147.633 33.0078C147.398 32.8776 147.203 32.6823 147.047 32.4219C146.891 32.1875 146.799 31.888 146.773 31.5234C146.773 30.8724 146.943 30.3906 147.281 30.0781C147.646 29.7656 148.023 29.6094 148.414 29.6094H148.648H148.727C149.013 29.6094 149.299 29.7786 149.586 30.1172L149.703 30.0781C149.938 29.974 150.172 29.8698 150.406 29.7656C150.615 29.6875 150.81 29.5964 150.992 29.4922C151.174 29.388 151.331 29.3099 151.461 29.2578C152.242 28.8672 152.867 28.3854 153.336 27.8125C153.831 27.2396 154.195 26.5885 154.43 25.8594C154.69 25.1562 154.859 24.401 154.938 23.5938C155.016 22.7604 155.055 21.888 155.055 20.9766V20.2344C154.638 20.651 154.065 21.0807 153.336 21.5234C152.633 21.9401 151.682 22.1484 150.484 22.1484C149.13 22.1484 148.062 21.8099 147.281 21.1328C146.526 20.4557 145.953 19.5833 145.562 18.5156C145.172 17.4479 144.911 16.276 144.781 15C144.677 13.6979 144.586 12.4349 144.508 11.2109Z" fill="black"/>
</svg>
